name rise30.8019peak61.5557fall86.2505.mot
datacolumns 19
datarows 18
range 10.04663100000000 10.07496300000000
endheader
time	ground_force1_vx	ground_force1_vy	ground_force1_vz	ground_force1_px	ground_force1_py	ground_force1_pz	ground_force2_vx	ground_force2_vy	ground_force2_vz	ground_force2_px	ground_force2_py	ground_force2_pz	ground_torque1_x	ground_torque1_y	ground_torque1_z	ground_torque2_x	ground_torque2_y	ground_torque2_z	
10.04663100000000	50.59447900000000	752.94295199999999	40.20018400000000	0.24264200000000	0.00000000000000	0.09464300000000	0.00000000000000	0.00000000000000	0.00000000000000	0.00000000000000	0.00000000000000	0.00000000000000	0.00000000000000	9.97885300000000	0.00000000000000	0.00000000000000	0.00000000000000	0.00000000000000	
10.04829900000000	50.12819400000000	756.37393799999995	40.50032500000000	0.24155400000000	0.00000000000000	0.09467900000000	0.00000000000000	0.00000000000000	0.00000000000000	0.00000000000000	0.00000000000000	0.00000000000000	0.00000000000000	10.10194900000000	0.00000000000000	0.00000000000000	0.00000000000000	0.00000000000000	
10.04996800000000	49.65122400000000	759.61054700000000	40.79990000000000	0.24044400000000	0.00000000000000	0.09471800000000	0.00000000000000	0.00000000000000	0.00000000000000	0.00000000000000	0.00000000000000	0.00000000000000	0.00000000000000	10.22533200000000	0.00000000000000	0.00000000000000	0.00000000000000	0.00000000000000	
10.05163400000000	49.16361800000000	762.65147899999999	41.09799300000000	0.23931100000000	0.00000000000000	0.09475900000000	0.00000000000000	0.00000000000000	0.00000000000000	0.00000000000000	0.00000000000000	0.00000000000000	0.00000000000000	10.34861800000000	0.00000000000000	0.00000000000000	0.00000000000000	0.00000000000000	
10.05330300000000	48.66543500000000	765.49577599999998	41.39365100000000	0.23815700000000	0.00000000000000	0.09480200000000	0.00000000000000	0.00000000000000	0.00000000000000	0.00000000000000	0.00000000000000	0.00000000000000	0.00000000000000	10.47140900000000	0.00000000000000	0.00000000000000	0.00000000000000	0.00000000000000	
10.05496200000000	48.15675000000000	768.14282100000003	41.68588800000000	0.23698200000000	0.00000000000000	0.09484600000000	0.00000000000000	0.00000000000000	0.00000000000000	0.00000000000000	0.00000000000000	0.00000000000000	0.00000000000000	10.59329900000000	0.00000000000000	0.00000000000000	0.00000000000000	0.00000000000000	
10.05662800000000	47.63765100000000	770.59234400000003	41.97369100000000	0.23578500000000	0.00000000000000	0.09489200000000	0.00000000000000	0.00000000000000	0.00000000000000	0.00000000000000	0.00000000000000	0.00000000000000	0.00000000000000	10.71387500000000	0.00000000000000	0.00000000000000	0.00000000000000	0.00000000000000	
10.05831000000000	47.10824700000000	772.84441700000002	42.25602700000000	0.23456700000000	0.00000000000000	0.09494000000000	0.00000000000000	0.00000000000000	0.00000000000000	0.00000000000000	0.00000000000000	0.00000000000000	0.00000000000000	10.83272200000000	0.00000000000000	0.00000000000000	0.00000000000000	0.00000000000000	
10.05997000000000	46.56866700000000	774.89945699999998	42.53185000000000	0.23332800000000	0.00000000000000	0.09498900000000	0.00000000000000	0.00000000000000	0.00000000000000	0.00000000000000	0.00000000000000	0.00000000000000	0.00000000000000	10.94942700000000	0.00000000000000	0.00000000000000	0.00000000000000	0.00000000000000	
10.06163100000000	46.01905900000000	776.75822100000005	42.80010700000000	0.23207000000000	0.00000000000000	0.09503900000000	0.00000000000000	0.00000000000000	0.00000000000000	0.00000000000000	0.00000000000000	0.00000000000000	0.00000000000000	11.06357500000000	0.00000000000000	0.00000000000000	0.00000000000000	0.00000000000000	
10.06329700000000	45.45959700000000	778.42180499999995	43.05974400000000	0.23079300000000	0.00000000000000	0.09509000000000	0.00000000000000	0.00000000000000	0.00000000000000	0.00000000000000	0.00000000000000	0.00000000000000	0.00000000000000	11.17476300000000	0.00000000000000	0.00000000000000	0.00000000000000	0.00000000000000	
10.06496800000000	44.89047600000000	779.89164100000005	43.30971600000000	0.22949700000000	0.00000000000000	0.09514200000000	0.00000000000000	0.00000000000000	0.00000000000000	0.00000000000000	0.00000000000000	0.00000000000000	0.00000000000000	11.28259000000000	0.00000000000000	0.00000000000000	0.00000000000000	0.00000000000000	
10.06663400000000	44.31191800000000	781.16948900000000	43.54898600000000	0.22818300000000	0.00000000000000	0.09519500000000	0.00000000000000	0.00000000000000	0.00000000000000	0.00000000000000	0.00000000000000	0.00000000000000	0.00000000000000	11.38667000000000	0.00000000000000	0.00000000000000	0.00000000000000	0.00000000000000	
10.06830100000000	43.72416800000000	782.25743499999999	43.77654100000000	0.22685300000000	0.00000000000000	0.09524800000000	0.00000000000000	0.00000000000000	0.00000000000000	0.00000000000000	0.00000000000000	0.00000000000000	0.00000000000000	11.48663000000000	0.00000000000000	0.00000000000000	0.00000000000000	0.00000000000000	
10.06996600000000	43.12749900000000	783.15788399999997	43.99139100000000	0.22550700000000	0.00000000000000	0.09530200000000	0.00000000000000	0.00000000000000	0.00000000000000	0.00000000000000	0.00000000000000	0.00000000000000	0.00000000000000	11.58211300000000	0.00000000000000	0.00000000000000	0.00000000000000	0.00000000000000	
10.07163000000000	42.52220900000000	783.87355000000002	44.19257800000000	0.22414600000000	0.00000000000000	0.09535600000000	0.00000000000000	0.00000000000000	0.00000000000000	0.00000000000000	0.00000000000000	0.00000000000000	0.00000000000000	11.67277700000000	0.00000000000000	0.00000000000000	0.00000000000000	0.00000000000000	
10.07330100000000	41.90862200000000	784.40745100000004	44.37918000000000	0.22277100000000	0.00000000000000	0.09541000000000	0.00000000000000	0.00000000000000	0.00000000000000	0.00000000000000	0.00000000000000	0.00000000000000	0.00000000000000	11.75830500000000	0.00000000000000	0.00000000000000	0.00000000000000	0.00000000000000	
10.07496300000000	41.28709100000000	784.76289599999996	44.55032100000000	0.22138300000000	0.00000000000000	0.09546400000000	0.00000000000000	0.00000000000000	0.00000000000000	0.00000000000000	0.00000000000000	0.00000000000000	0.00000000000000	11.83839900000000	0.00000000000000	0.00000000000000	0.00000000000000	0.00000000000000	
